<svg width="50" height="50" viewBox="0 0 50 50" fill="none" xmlns="http://www.w3.org/2000/svg">
<rect width="50" height="50" rx="25" fill="#EC1C24"/>
<path d="M25.0016 13.9587C20.8589 13.9587 17.5 17.2951 17.5 21.4108C17.5 23.5163 19.5654 27.2884 19.5654 27.2884L24.7251 36.0415L30.1086 27.3906C30.1086 27.3906 32.5 23.7915 32.5 21.4108C32.5006 17.2951 29.1424 13.9587 25.0016 13.9587ZM24.9665 25.5152C22.5938 25.5152 20.6721 23.5934 20.6721 21.2183C20.6721 18.8463 22.5932 16.9258 24.9665 16.9258C27.3378 16.9258 29.2615 18.8463 29.2615 21.2183C29.2615 23.5934 27.3378 25.5152 24.9665 25.5152Z" fill="white"/>
</svg>
