<svg width="50" height="50" viewBox="0 0 50 50" fill="none" xmlns="http://www.w3.org/2000/svg">
<rect width="50" height="50" rx="25" fill="#EC1C24"/>
<path d="M32.1359 27.6585C31.0951 27.6585 30.0731 27.4957 29.1047 27.1757C28.6302 27.0139 28.0468 27.1623 27.7572 27.4598L25.8457 28.9028C23.629 27.7194 22.2635 26.3544 21.0963 24.1543L22.4968 22.2926C22.8607 21.9292 22.9912 21.3984 22.8348 20.9004C22.5134 19.9269 22.3502 18.9054 22.3502 17.8642C22.3502 17.112 21.7382 16.5 20.9861 16.5H17.8641C17.112 16.5 16.5 17.112 16.5 17.8641C16.5 26.4858 23.5142 33.5 32.1359 33.5C32.888 33.5 33.5 32.888 33.5 32.1358V29.0226C33.5 28.2705 32.888 27.6585 32.1359 27.6585Z" fill="white"/>
</svg>
