<svg width="50" height="50" viewBox="0 0 50 50" fill="none" xmlns="http://www.w3.org/2000/svg">
<rect width="50" height="50" rx="25" fill="#EC1C24"/>
<path d="M27.9316 25.0922L33.9999 28.9285V21.094L27.9316 25.0922Z" fill="white"/>
<path d="M16 21.094V28.9285L22.0683 25.0922L16 21.094Z" fill="white"/>
<path d="M32.8749 18.8125H17.1249C16.5636 18.8125 16.1181 19.231 16.0337 19.7699L24.9999 25.6773L33.9662 19.7699C33.8818 19.231 33.4363 18.8125 32.8749 18.8125Z" fill="white"/>
<path d="M26.9014 25.7716L25.3095 26.8201C25.215 26.882 25.1081 26.9124 25.0001 26.9124C24.8921 26.9124 24.7853 26.882 24.6908 26.8201L23.0989 25.7705L16.0361 30.2379C16.1228 30.7723 16.566 31.1874 17.1251 31.1874H32.8751C33.4343 31.1874 33.8775 30.7723 33.9641 30.2379L26.9014 25.7716Z" fill="white"/>
</svg>
