<svg width="40" height="40" viewBox="0 0 40 40" fill="none" xmlns="http://www.w3.org/2000/svg">
<rect width="40" height="40" rx="20" fill="#EC1C24"/>
<path d="M24.6234 10.004L22.2249 10C19.5302 10 17.7888 11.8353 17.7888 14.6759V16.8318H15.3771C15.1688 16.8318 15 17.0054 15 17.2195V20.3431C15 20.5572 15.1689 20.7306 15.3771 20.7306H17.7888V28.6126C17.7888 28.8267 17.9575 29 18.1659 29H21.3124C21.5208 29 21.6896 28.8265 21.6896 28.6126V20.7306H24.5093C24.7177 20.7306 24.8865 20.5572 24.8865 20.3431L24.8876 17.2195C24.8876 17.1167 24.8478 17.0182 24.7772 16.9455C24.7066 16.8728 24.6103 16.8318 24.5103 16.8318H21.6896V15.0042C21.6896 14.1258 21.8933 13.6799 23.0073 13.6799L24.623 13.6793C24.8312 13.6793 25 13.5058 25 13.2919V10.3914C25 10.1777 24.8314 10.0043 24.6234 10.004Z" fill="white"/>
</svg>
