<svg width="16" height="9" viewBox="0 0 16 9" fill="none" xmlns="http://www.w3.org/2000/svg">
<mask id="path-1-inside-1" fill="white">
<path d="M8.3116 8.32179L15.8527 0.77375C16.0302 0.59603 16.0302 0.311009 15.8527 0.133289C15.6751 -0.0444298 15.3904 -0.0444298 15.2128 0.133289L7.99334 7.35942L0.773871 0.133289C0.596316 -0.0444298 0.311559 -0.0444298 0.134004 0.133289C0.0469007 0.220473 -9.53674e-07 0.337834 -9.53674e-07 0.451843C-9.53674e-07 0.565852 0.0435505 0.683214 0.134004 0.770397L7.67508 8.31844C7.84928 8.49616 8.13739 8.49615 8.3116 8.32179Z"/>
</mask>
<path d="M8.3116 8.32179L15.8527 0.77375C16.0302 0.59603 16.0302 0.311009 15.8527 0.133289C15.6751 -0.0444298 15.3904 -0.0444298 15.2128 0.133289L7.99334 7.35942L0.773871 0.133289C0.596316 -0.0444298 0.311559 -0.0444298 0.134004 0.133289C0.0469007 0.220473 -9.53674e-07 0.337834 -9.53674e-07 0.451843C-9.53674e-07 0.565852 0.0435505 0.683214 0.134004 0.770397L7.67508 8.31844C7.84928 8.49616 8.13739 8.49615 8.3116 8.32179Z" fill="#EC1C24"/>
<path d="M8.3116 8.32179L6.89673 6.90823L8.3116 8.32179ZM15.8527 0.77375L17.2675 2.18731L15.8527 0.77375ZM15.2128 0.133289L13.7979 -1.28027L15.2128 0.133289ZM7.99334 7.35942L6.57847 8.77298L7.99334 10.1892L9.4082 8.77298L7.99334 7.35942ZM0.773871 0.133289L-0.640995 1.54685L0.773871 0.133289ZM0.134004 0.770397L1.54887 -0.643164L1.53553 -0.656511L1.52195 -0.669604L0.134004 0.770397ZM7.67508 8.31844L9.10334 6.91841L9.09668 6.91161L9.08994 6.90488L7.67508 8.31844ZM9.72646 9.73535L17.2675 2.18731L14.4378 -0.639811L6.89673 6.90823L9.72646 9.73535ZM17.2675 2.18731C18.2253 1.22869 18.2253 -0.321653 17.2675 -1.28027L14.4378 1.54685C13.8352 0.94367 13.8352 -0.0366315 14.4378 -0.639811L17.2675 2.18731ZM17.2675 -1.28027C16.3088 -2.23991 14.7567 -2.23991 13.7979 -1.28027L16.6277 1.54685C16.024 2.15105 15.0414 2.15105 14.4378 1.54685L17.2675 -1.28027ZM13.7979 -1.28027L6.57847 5.94586L9.4082 8.77298L16.6277 1.54685L13.7979 -1.28027ZM9.4082 5.94586L2.18874 -1.28027L-0.640995 1.54685L6.57847 8.77298L9.4082 5.94586ZM2.18874 -1.28027C1.22998 -2.23991 -0.322109 -2.23991 -1.28086 -1.28027L1.54887 1.54685C0.945227 2.15105 -0.0373516 2.15105 -0.640995 1.54685L2.18874 -1.28027ZM-1.28086 -1.28027C-1.7408 -0.819914 -2 -0.194882 -2 0.451843L2 0.451843C2 0.870551 1.8346 1.26086 1.54887 1.54685L-1.28086 -1.28027ZM-2 0.451843C-2 1.06451 -1.76645 1.71642 -1.25394 2.2104L1.52195 -0.669604C1.85355 -0.349989 2 0.067193 2 0.451843L-2 0.451843ZM-1.28086 2.18396L6.26021 9.732L9.08994 6.90488L1.54887 -0.643164L-1.28086 2.18396ZM6.24681 9.71846C7.20296 10.6939 8.76885 10.6939 9.72646 9.73535L6.89673 6.90823C7.50594 6.29846 8.4956 6.29842 9.10334 6.91841L6.24681 9.71846Z" fill="#EC1C24" mask="url(#path-1-inside-1)"/>
</svg>
