<svg width="23" height="14" viewBox="0 0 23 14" fill="none" xmlns="http://www.w3.org/2000/svg">
<path d="M12.1911 13.2829L22.2559 3.2179C22.4888 2.98511 22.6172 2.67436 22.6172 2.34301C22.6172 2.01166 22.4888 1.7009 22.2559 1.46811L21.5148 0.7269C21.032 0.244587 20.2472 0.244587 19.765 0.7269L11.3133 9.17869L2.85209 0.717522C2.61912 0.484732 2.30855 0.356201 1.97738 0.356201C1.64585 0.356201 1.33528 0.484732 1.10212 0.717522L0.361273 1.45874C0.1283 1.69171 -4.76837e-05 2.00228 -4.76837e-05 2.33363C-4.76837e-05 2.66498 0.1283 2.97573 0.361273 3.20852L10.4352 13.2829C10.6689 13.5162 10.981 13.6444 11.3127 13.6436C11.6457 13.6444 11.9576 13.5162 12.1911 13.2829Z" fill="#6E7684"/>
</svg>
