<svg width="23" height="21" viewBox="0 0 23 21" fill="none" xmlns="http://www.w3.org/2000/svg">
<path d="M21.2581 6.86806C21.2428 6.8435 21.2299 6.81958 21.2119 6.79567L20.4177 5.72465C21.0763 5.51588 21.7854 4.74477 21.7854 3.95363C21.7854 3.03192 20.87 2.70487 20.0888 2.70487C19.272 2.70487 19.1772 3.48696 19.1675 4.0396L17.1185 1.279C16.7022 0.703097 15.9127 0.25 15.3225 0.25H11.3319H11.3309H7.33934C6.74963 0.25 5.96056 0.703097 5.54382 1.279L3.4953 4.0396C3.48466 3.48696 3.38984 2.70487 2.57395 2.70487C1.79182 2.70487 0.876947 3.03192 0.876947 3.95363C0.876947 4.74477 1.58646 5.51588 2.2451 5.72465L1.45094 6.79567C1.4329 6.81958 1.42041 6.8435 1.40469 6.86806C0.55503 7.88284 0 9.76504 0 11.1308V15.1893C0 16.1743 0.277977 17.0682 0.727089 17.7346V19.3085C0.727089 20.2289 1.27842 20.9793 1.95648 20.9793H3.44304C4.1211 20.9793 4.67196 20.2302 4.67196 19.3085V18.9058H11.3309H11.3319H17.9904V19.3085C17.9904 20.2302 18.5408 20.9793 19.2198 20.9793H20.7059C21.3844 20.9793 21.9348 20.2289 21.9348 19.3085V17.7346C22.3844 17.0682 22.6619 16.1743 22.6619 15.1893V11.1308C22.6628 9.76504 22.1078 7.88284 21.2581 6.86806ZM6.29635 2.50579C6.5845 2.17033 7.08819 1.91566 7.33934 1.91566H11.3309H11.3319H15.3235C15.5746 1.91566 16.0783 2.17033 16.3664 2.50579L19.0533 6.14478H11.3319H11.3309H3.61001L6.29635 2.50579ZM0.921812 10.5167C0.921812 9.51748 1.48147 8.7063 2.17248 8.7063C2.86303 8.7063 5.11969 10.5575 5.11969 11.5567C5.11969 12.556 2.86303 12.3246 2.17248 12.3246C1.48147 12.3246 0.921812 11.5167 0.921812 10.5167ZM4.67243 17.1264H4.43423H4.19603L2.78301 17.1296C2.39079 16.959 2.1142 16.7599 1.91855 16.546C1.81957 16.438 1.74372 16.3256 1.68452 16.2137C1.62485 16.1006 1.58137 15.9895 1.55316 15.8783C1.3774 15.1841 1.74048 14.5461 1.74048 14.5461H4.15209L5.75982 17.1251L4.67243 17.1264ZM14.7989 17.1277H11.3319H11.3309H7.86385C7.14092 17.1277 6.55398 16.3075 6.55398 15.2979H11.3309H11.3319H16.1088C16.1088 16.3088 15.5219 17.1277 14.7989 17.1277ZM15.1033 14.0491H11.3319H11.3309H7.55951C6.77321 14.0491 6.13493 12.6943 6.13493 11.0235H11.3309H11.3319H16.5279C16.5279 12.695 15.8896 14.0491 15.1033 14.0491ZM21.1101 15.8796C21.0814 15.9908 21.0379 16.1019 20.9783 16.2144C20.9195 16.3262 20.8437 16.4387 20.7442 16.5466C20.5491 16.7606 20.272 16.9609 19.8798 17.1303L18.4668 17.1271H18.2286H17.9904H16.902L18.5107 14.5481H20.9219C20.9219 14.5474 21.2854 15.1841 21.1101 15.8796ZM20.4903 12.3246C19.8002 12.3246 17.5436 12.5547 17.5436 11.5567C17.5436 10.5588 19.8002 8.7063 20.4903 8.7063C21.1813 8.7063 21.741 9.51748 21.741 10.5167C21.741 11.5154 21.1813 12.3246 20.4903 12.3246Z" fill="#EC1C24"/>
</svg>
