<svg width="18" height="16" viewBox="0 0 18 16" fill="none" xmlns="http://www.w3.org/2000/svg">
<path d="M15.4018 8.95227H14.0098C14.1517 9.34075 14.2292 9.75999 14.2292 10.1969V15.4581C14.2292 15.6403 14.1975 15.8151 14.1398 15.9778H16.4411C17.3008 15.9778 18.0002 15.2784 18.0002 14.4187V11.5506C18.0002 10.1179 16.8346 8.95227 15.4018 8.95227Z" fill="#C6C6C6"/>
<path d="M3.77104 10.1973C3.77104 9.76032 3.84856 9.34111 3.99045 8.95264H2.5984C1.16564 8.95264 0 10.1183 0 11.551V14.4191C0 15.2788 0.699365 15.9782 1.55904 15.9782H3.86044C3.80275 15.8155 3.77104 15.6406 3.77104 15.4585V10.1973Z" fill="#C6C6C6"/>
<path d="M10.5914 7.59875H7.40895C5.97619 7.59875 4.81055 8.7644 4.81055 10.1972V15.4583C4.81055 15.7453 5.04321 15.978 5.33023 15.978H12.6701C12.9571 15.978 13.1898 15.7453 13.1898 15.4583V10.1972C13.1898 8.7644 12.0241 7.59875 10.5914 7.59875Z" fill="#C6C6C6"/>
<path d="M8.9999 0.708984C7.27682 0.708984 5.875 2.11081 5.875 3.83392C5.875 5.0027 6.52008 6.02346 7.47275 6.55938C7.92461 6.81356 8.44556 6.95883 8.9999 6.95883C9.55425 6.95883 10.0752 6.81356 10.5271 6.55938C11.4798 6.02346 12.1248 5.00266 12.1248 3.83392C12.1248 2.11084 10.723 0.708984 8.9999 0.708984Z" fill="#C6C6C6"/>
<path d="M3.5128 3.6217C2.22414 3.6217 1.17578 4.67007 1.17578 5.95872C1.17578 7.24738 2.22414 8.29574 3.5128 8.29574C3.83968 8.29574 4.15096 8.22803 4.43372 8.10631C4.9226 7.89583 5.3257 7.52325 5.57514 7.05655C5.75022 6.729 5.84981 6.35532 5.84981 5.95872C5.84981 4.6701 4.80145 3.6217 3.5128 3.6217Z" fill="#C6C6C6"/>
<path d="M14.4874 3.6217C13.1988 3.6217 12.1504 4.67007 12.1504 5.95872C12.1504 6.35535 12.25 6.72903 12.4251 7.05655C12.6745 7.52328 13.0776 7.89587 13.5665 8.10631C13.8492 8.22803 14.1605 8.29574 14.4874 8.29574C15.7761 8.29574 16.8244 7.24738 16.8244 5.95872C16.8244 4.67007 15.7761 3.6217 14.4874 3.6217Z" fill="#C6C6C6"/>
</svg>
