<svg width="18" height="15" viewBox="0 0 18 15" fill="none" xmlns="http://www.w3.org/2000/svg">
<path d="M12.1316 3.27032V1.27514C12.1316 0.96246 11.8781 0.708984 11.5654 0.708984H6.43468C6.122 0.708984 5.86852 0.96246 5.86852 1.27514V3.27032H4.26318V14.9709H13.7369V3.27032H12.1316ZM10.9993 3.26582H7.00083V1.84129H10.9992V3.26582H10.9993Z" fill="#C6C6C6"/>
<path d="M1.92448 3.27051C0.86333 3.27051 0 4.1338 0 5.19496V13.0466C0 14.1078 0.86333 14.9711 1.92448 14.9711H3.1308V3.27051H1.92448Z" fill="#C6C6C6"/>
<path d="M16.0755 3.27051H14.8691V14.9711H16.0755C17.1366 14.9711 17.9999 14.1078 17.9999 13.0467V5.19496C17.9999 4.1338 17.1366 3.27051 16.0755 3.27051Z" fill="#C6C6C6"/>
</svg>
