<svg width="15" height="21" viewBox="0 0 15 21" fill="none" xmlns="http://www.w3.org/2000/svg">
<path d="M7.5 0C3.36448 0 0 3.36448 0 7.49996C0 12.6322 6.71176 20.1667 6.99752 20.4849C7.26593 20.7839 7.73455 20.7833 8.00248 20.4849C8.28823 20.1667 15 12.6322 15 7.49996C14.9999 3.36448 11.6355 0 7.5 0ZM7.5 11.2734C5.41932 11.2734 3.7266 9.58064 3.7266 7.49996C3.7266 5.41928 5.41936 3.72656 7.5 3.72656C9.58064 3.72656 11.2734 5.41932 11.2734 7.5C11.2734 9.58068 9.58064 11.2734 7.5 11.2734Z" fill="#C6C6C6"/>
</svg>
