<svg width="55" height="48" viewBox="0 0 55 48" fill="none" xmlns="http://www.w3.org/2000/svg">
<path d="M54.9876 13.1104C54.9876 13.1045 54.9882 13.0985 54.9882 13.0925C54.9882 5.86165 49.1266 0 41.8957 0C34.6648 0 28.8032 5.86154 28.8032 13.0925C28.8032 20.3236 34.6654 26.1851 41.8958 26.1851C43.3818 26.1851 44.8043 25.926 46.1354 25.4696C43.1898 42.3677 30.0125 53.2652 42.2277 44.2963C55.7726 34.3508 55.0027 13.492 54.9876 13.1104Z" fill="#E3E3E3"/>
<path d="M13.0925 26.185C14.5786 26.185 16.0011 25.9259 17.3328 25.4695C14.3865 42.3675 1.20914 53.265 13.4245 44.2962C26.9694 34.3508 26.1996 13.492 26.1843 13.1104C26.1843 13.1045 26.185 13.0985 26.185 13.0925C26.185 5.86165 20.3234 0 13.0925 0C5.86154 0 0 5.86154 0 13.0925C0 20.3236 5.86219 26.185 13.0925 26.185Z" fill="#E3E3E3"/>
</svg>
